<?xml version="1.0" encoding="UTF-8"?><svg id="Layer_1" xmlns="http://www.w3.org/2000/svg" viewBox="0 0 940 236"><defs><style>.cls-1{fill:#e93323;}.cls-2{fill:#f7ef50;}.cls-2,.cls-3{fill-rule:evenodd;}.cls-3{fill:#55a9df;}</style></defs><path class="cls-1" d="m82.91,221h-46.66L236.03,15.92h46.83L82.91,221Zm117.92,0h-111.6l37.43-38.79h111.6l-37.43,38.79ZM102.73,90.09l-25.63-21.7,49.73-51.44c25.41-.68,50.7-1.03,75.88-1.03l-10.6,38.96h-55.71l-33.67,35.21Z"/><path class="cls-1" d="m248.51,221l54.86-204.91h38.62l-24.61,92.11c2.28-1.14,5.07-2.68,8.37-4.61,30.99-15.95,68.99-24.38,113.99-25.29l6.15-23.41c2.96-10.82,9.29-20,18.97-27.51,9.68-7.52,19.71-11.28,30.08-11.28l-54.69,204.05h-38.62l28.2-104.76c-38.17.8-69.04,7.4-92.63,19.82-20.96,10.82-34.18,26.49-39.65,47-2.96,10.82-9.29,20-18.97,27.51-9.68,7.52-19.71,11.28-30.08,11.28Z"/><path class="cls-1" d="m653.37,221c-10.82,0-18.97-3.87-24.44-11.62-3.65-5.13-5.47-10.77-5.47-16.92,0-3.3.51-6.72,1.54-10.25l14.53-54.17c-36.69.91-67.56,8.72-92.63,23.41-10.82,6.38-20.05,14.3-27.68,23.76-7.52,9.46-12.99,20.51-16.41,33.15l-3.42,12.65h-38.62l45.29-168.85c10.82,0,18.91,3.87,24.27,11.62,3.53,5.13,5.3,10.82,5.3,17.09,0,3.19-.46,6.55-1.37,10.08l-9.23,34.35c1.25-.8,2.51-1.54,3.76-2.22,1.37-.68,2.62-1.42,3.76-2.22,33.04-19.71,72.06-29.96,117.06-30.76l9.4-35.21h-114.16c-10.82,0-18.91-3.87-24.27-11.62-3.65-5.13-5.47-10.88-5.47-17.26,0-3.19.46-6.49,1.37-9.91h152.1c10.82,0,18.97,3.87,24.44,11.62,3.53,5.01,5.3,10.65,5.3,16.92,0,3.19-.51,6.61-1.54,10.25-14.7,55.03-29.17,110.4-43.41,166.11Z"/><path class="cls-1" d="m786.16,182.21c11.39,0,21.48-2.39,30.25-7.18,8.89-4.79,16.35-11.39,22.39-19.82,6.15-8.43,10.71-18.11,13.67-29.05l18.97-71.26h-63.92c-11.39,0-21.53,2.39-30.42,7.18-8.77,4.79-16.24,11.39-22.39,19.82-6.04,8.43-10.48,18.12-13.33,29.05l-19.14,71.26h63.92Zm-10.42,38.79h-101.68l29.57-110.06c4.78-18.11,12.59-34.29,23.41-48.53,10.94-14.36,24.15-25.63,39.65-33.84,15.61-8.32,32.7-12.48,51.27-12.48h101.68l-29.4,110.06c-4.9,18.12-12.82,34.35-23.75,48.71-10.94,14.24-24.15,25.52-39.65,33.84-15.49,8.2-32.53,12.3-51.1,12.3Z"/><path class="cls-3" d="m.7,236L162.52,69.89h-19.71l-39,40.78-48.64-41.18L120.3,2.12l6.12-.16c25.54-.69,50.97-1.03,76.28-1.03h19.62l-2.85,10.5,10.23-10.5h88.73l-.17.17h43.26l-21.28,79.67c25.92-9.87,55.27-15.47,87.83-17.06l3.33-12.69.02-.07c3.9-14.25,12.24-26.09,24.24-35.4,11.82-9.18,25-14.43,39.28-14.43h173.63c14.9,0,27.98,5.63,36.69,17.97h0c5.35,7.61,8.04,16.28,8.04,25.57,0,4.63-.72,9.26-1.96,13.83,1.21-1.74,2.45-3.45,3.73-5.14h.01c12.21-16.04,27.08-28.76,44.54-38.01,17.89-9.53,37.41-14.23,58.31-14.23h121.22l-34.44,128.95v.02c-5.39,19.91-14.15,37.92-26.31,53.88l-.02.02-.02.02c-12.2,15.89-27.04,28.57-44.45,37.92l-.04.02-.04.02c-17.79,9.42-37.25,14.05-58.12,14.05h-122.36c-14.89,0-27.97-5.63-36.68-17.95-5.4-7.6-8.23-16.26-8.23-25.59,0-4.81.74-9.59,2.09-14.28l9.08-33.84c-25.68,2.76-47.27,9.57-65.12,20.03-9.3,5.49-17.13,12.22-23.58,20.2-6.12,7.71-10.71,16.87-13.63,27.69l-6.41,23.73h-69.66l.23-.85h-59.38l27.92-103.72c-27.17,2.32-48.94,8.18-65.79,17.05l-.05.03-.05.03c-17.67,9.12-27.79,21.59-32.04,37.53v.05s-.02.05-.02.05c-3.9,14.25-12.24,26.09-24.24,35.4-11.82,9.18-25,14.43-39.28,14.43h-19.54l8.36-31.23-30.12,31.23H.7Zm247.81-15c5.56,0,11.03-1.08,16.4-3.25,4.63-1.87,9.19-4.55,13.68-8.03,9.68-7.52,16.01-16.69,18.97-27.51,5.47-20.51,18.68-36.17,39.65-47,20.26-10.67,45.89-17.05,76.91-19.14,5.09-.34,10.33-.57,15.72-.68l-28.2,104.76h38.62l54.69-204.05c-5.57,0-11.03,1.08-16.4,3.25-4.63,1.87-9.19,4.55-13.68,8.03-9.68,7.52-16.01,16.69-18.97,27.51l-6.15,23.41c-40.45.82-75.24,7.71-104.37,20.68-3.28,1.46-6.48,3-9.62,4.61-3.3,1.94-6.1,3.47-8.37,4.61l24.61-92.11h-38.62l-54.86,204.91Zm33.35-182.56l-34.48,128.77h-91.07l125.55-128.77ZM126.66,182.21l-37.43,38.79h111.6l37.43-38.79h-111.6ZM282.86,15.92h-46.83L36.25,221h46.66L282.86,15.92Zm225.68,36.3c-.81-.05-1.64-.07-2.49-.07l-45.29,168.85h38.62l3.42-12.65c3.42-12.65,8.89-23.7,16.41-33.15,7.63-9.46,16.86-17.37,27.68-23.76,21.39-12.54,47.02-20.07,76.87-22.57,5.13-.43,10.38-.71,15.76-.85l-14.53,54.17c-1.03,3.53-1.54,6.95-1.54,10.25,0,6.15,1.82,11.79,5.47,16.92,5.47,7.75,13.61,11.62,24.44,11.62,14.24-55.71,28.71-111.08,43.41-166.11,1.03-3.65,1.54-7.06,1.54-10.25,0-6.27-1.77-11.91-5.3-16.92-5.47-7.75-13.62-11.62-24.44-11.62h-152.1c-.91,3.42-1.37,6.72-1.37,9.91,0,4.45.89,8.59,2.66,12.42.77,1.67,1.71,3.28,2.81,4.84,4.94,7.14,12.2,10.99,21.78,11.55.81.05,1.64.07,2.49.07h114.16l-9.4,35.21c-40.18.71-75.6,8.96-106.24,24.76-3.67,1.89-7.28,3.9-10.82,6.01-1.14.8-2.39,1.54-3.76,2.22-1.25.68-2.51,1.42-3.76,2.22l9.23-34.35c.91-3.53,1.37-6.89,1.37-10.08,0-4.37-.86-8.46-2.58-12.27-.74-1.66-1.65-3.26-2.72-4.82-4.94-7.14-12.2-10.99-21.78-11.55Zm40.76,17.66c.88,3.54,1.32,7.21,1.32,10.98,0,4.62-.66,9.25-1.84,13.83l-.02.07-.28,1.03c26.95-11.87,56.84-18.57,89.5-20.3l1.5-5.61h-90.18Zm154.31,41.05l-29.57,110.06h101.68c18.57,0,35.6-4.1,51.1-12.3,15.49-8.32,28.71-19.6,39.65-33.84,10.94-14.35,18.85-30.59,23.75-48.71l29.4-110.06h-101.68c-18.57,0-35.66,4.16-51.27,12.48-15.49,8.2-28.71,19.48-39.65,33.84-10.82,14.24-18.63,30.42-23.41,48.53ZM187.15,15.97c5.19-.03,10.38-.04,15.56-.04l-10.6,38.96h-55.71l-33.67,35.21-25.63-21.7,49.73-51.44c20.18-.54,40.29-.87,60.32-.98Zm622.1,145.87l.04-.02c6.82-3.67,12.56-8.73,17.3-15.35l.04-.05.04-.05c4.98-6.82,8.78-14.8,11.3-24.1,0,0,0-.02,0-.03l13.93-52.34h-44.4c-9.22,0-16.85,1.91-23.27,5.37-6.71,3.67-12.49,8.74-17.38,15.42-4.86,6.8-8.55,14.75-10.97,24.05v.06s-14.1,52.43-14.1,52.43h44.35c9.24,0,16.79-1.92,23.07-5.35l.04-.02Zm-87.02,20.37l19.14-71.26c2.85-10.94,7.29-20.62,13.33-29.05,6.15-8.43,13.61-15.04,22.39-19.82,8.89-4.79,19.03-7.18,30.42-7.18h63.92l-18.97,71.26c-2.96,10.94-7.52,20.62-13.67,29.05-6.04,8.43-13.5,15.04-22.39,19.82-8.77,4.79-18.86,7.18-30.25,7.18h-63.92Z"/><path class="cls-1" d="m82.91,221h-46.66L236.03,15.92h46.83L82.91,221Zm117.92,0h-111.6l37.43-38.79h111.6l-37.43,38.79ZM102.73,90.09l-25.63-21.7,49.73-51.44c25.41-.68,50.7-1.03,75.88-1.03l-10.6,38.96h-55.71l-33.67,35.21Z"/><path class="cls-1" d="m248.51,221l54.86-204.91h38.62l-24.61,92.11c2.28-1.14,5.07-2.68,8.37-4.61,30.99-15.95,68.99-24.38,113.99-25.29l6.15-23.41c2.96-10.82,9.29-20,18.97-27.51,9.68-7.52,19.71-11.28,30.08-11.28l-54.69,204.05h-38.62l28.2-104.76c-38.17.8-69.04,7.4-92.63,19.82-20.96,10.82-34.18,26.49-39.65,47-2.96,10.82-9.29,20-18.97,27.51-9.68,7.52-19.71,11.28-30.08,11.28Z"/><path class="cls-1" d="m653.37,221c-10.82,0-18.97-3.87-24.44-11.62-3.65-5.13-5.47-10.77-5.47-16.92,0-3.3.51-6.72,1.54-10.25l14.53-54.17c-36.69.91-67.56,8.72-92.63,23.41-10.82,6.38-20.05,14.3-27.68,23.76-7.52,9.46-12.99,20.51-16.41,33.15l-3.42,12.65h-38.62l45.29-168.85c10.82,0,18.91,3.87,24.27,11.62,3.53,5.13,5.3,10.82,5.3,17.09,0,3.19-.46,6.55-1.37,10.08l-9.23,34.35c1.25-.8,2.51-1.54,3.76-2.22,1.37-.68,2.62-1.42,3.76-2.22,33.04-19.71,72.06-29.96,117.06-30.76l9.4-35.21h-114.16c-10.82,0-18.91-3.87-24.27-11.62-3.65-5.13-5.47-10.88-5.47-17.26,0-3.19.46-6.49,1.37-9.91h152.1c10.82,0,18.97,3.87,24.44,11.62,3.53,5.01,5.3,10.65,5.3,16.92,0,3.19-.51,6.61-1.54,10.25-14.7,55.03-29.17,110.4-43.41,166.11Z"/><path class="cls-1" d="m786.16,182.21c11.39,0,21.48-2.39,30.25-7.18,8.89-4.79,16.35-11.39,22.39-19.82,6.15-8.43,10.71-18.11,13.67-29.05l18.97-71.26h-63.92c-11.39,0-21.53,2.39-30.42,7.18-8.77,4.79-16.24,11.39-22.39,19.82-6.04,8.43-10.48,18.12-13.33,29.05l-19.14,71.26h63.92Zm-10.42,38.79h-101.68l29.57-110.06c4.78-18.11,12.59-34.29,23.41-48.53,10.94-14.36,24.15-25.63,39.65-33.84,15.61-8.32,32.7-12.48,51.27-12.48h101.68l-29.4,110.06c-4.9,18.12-12.82,34.35-23.75,48.71-10.94,14.24-24.15,25.52-39.65,33.84-15.49,8.2-32.53,12.3-51.1,12.3Z"/><path class="cls-2" d="m19.66,228L181.48,61.89h-42.09l-36.15,37.8-36.37-30.79L123.78,10.03l2.86-.08c25.47-.69,50.82-1.03,76.07-1.03h9.16l-8.22,30.21,29.43-30.21h66.38l-.17.17h51.81l-22.83,85.45c29.77-14.1,65.18-21.72,106.03-23.1l4.83-18.37v-.03c3.41-12.42,10.68-22.84,21.44-31.2,10.68-8.29,22.18-12.75,34.37-12.75h9.12l-58.44,218.05h-53.13l28.11-104.44c-33.13,1.6-59.74,7.95-80.15,18.7h-.03s-.02.03-.02.03c-19.43,10.03-31.2,24.21-36.1,42.58v.02s-.01.02-.01.02c-3.4,12.42-10.66,22.84-21.43,31.2-10.68,8.29-22.18,12.75-34.37,12.75h-9.12l13.67-51.05-49.26,51.05H19.66Zm233.86-52.79L297.5,10.93l-160.17,164.28h116.19Zm-126.86,7l-37.43,38.79h111.6l37.43-38.79h-111.6ZM282.86,15.92h-46.83L36.25,221h46.66L282.86,15.92Zm139.66,99.69c2.41-.1,4.84-.18,7.31-.23l-28.2,104.76h38.62l54.69-204.05c-2.49,0-4.97.22-7.42.65-7.75,1.37-15.3,4.92-22.66,10.63-9.68,7.52-16.01,16.69-18.97,27.51l-6.15,23.41c-44.95.91-82.9,9.32-113.87,25.23-.04.02-.08.04-.12.06-3.3,1.94-6.1,3.47-8.37,4.61l24.61-92.11h-38.62l-54.86,204.91c2.49,0,4.97-.22,7.42-.65,7.75-1.37,15.3-4.92,22.66-10.63,9.68-7.52,16.01-16.69,18.97-27.51,5.47-20.51,18.68-36.17,39.65-47,22.06-11.62,50.5-18.15,85.32-19.6ZM202.71,15.92c-2.42,0-4.84,0-7.26,0-22.78.06-45.65.4-68.62,1.02l-49.73,51.44,25.63,21.7,33.67-35.21h55.71l10.6-38.96Zm456.1,212.08h-5.44c-12.72,0-23.16-4.69-30.14-14.56-4.47-6.28-6.76-13.34-6.76-20.98,0-4.01.62-8.06,1.79-12.13l12.04-44.9c-31.62,1.9-58.15,9.34-79.84,22.05-10.12,5.96-18.69,13.33-25.78,22.1-6.87,8.64-11.92,18.81-15.11,30.6l-4.82,17.82h-53.11l49.04-182.85h5.37c2.7,0,5.3.21,7.79.64-3.82-5.95-5.73-12.6-5.73-19.79,0-3.86.55-7.77,1.6-11.72l1.39-5.2h157.48c12.73,0,23.18,4.69,30.16,14.58h0c4.38,6.23,6.58,13.28,6.58,20.96,0,3.92-.63,7.97-1.79,12.11-14.69,54.99-29.15,110.32-43.38,166l-1.35,5.27Zm37.97-173.11c1.03-3.65,1.54-7.06,1.54-10.25,0-6.27-1.77-11.91-5.3-16.92-5.47-7.75-13.62-11.62-24.44-11.62h-152.1c-.91,3.42-1.37,6.72-1.37,9.91,0,6.38,1.82,12.13,5.47,17.26,5.35,7.75,13.44,11.62,24.27,11.62h114.16l-9.4,35.21c-44.51.79-83.16,10.83-115.97,30.11-.37.21-.73.43-1.1.65-1.14.8-2.39,1.54-3.76,2.22-1.25.68-2.51,1.42-3.76,2.22l9.23-34.35c.91-3.53,1.37-6.89,1.37-10.08,0-6.27-1.77-11.96-5.3-17.09-5.35-7.75-13.44-11.62-24.27-11.62l-45.29,168.85h38.62l3.42-12.65c3.42-12.65,8.89-23.7,16.41-33.15,7.63-9.46,16.86-17.37,27.68-23.76,23.38-13.71,51.82-21.42,85.31-23.13,2.41-.12,4.86-.22,7.32-.28l-14.53,54.17c-1.03,3.53-1.54,6.95-1.54,10.25,0,6.15,1.82,11.79,5.47,16.92,5.47,7.75,13.61,11.62,24.44,11.62,14.24-55.71,28.71-111.08,43.41-166.11Zm-160.59,55.84c31.3-17,67.36-26.1,108.01-27.49l5.7-21.34h-105.05c-2.72,0-5.32-.21-7.82-.65,3.71,5.94,5.59,12.53,5.59,19.62,0,3.86-.55,7.81-1.59,11.83v.03s-.02.03-.02.03l-4.83,17.96Zm276.88,58.15h.02c7.92-4.27,14.58-10.16,20.02-17.75l.02-.03.02-.02c5.6-7.68,9.81-16.57,12.57-26.74,0,0,0,0,0-.02l16.62-62.43h-54.81c-10.38,0-19.35,2.17-27.08,6.33-7.81,4.26-14.49,10.15-20.05,17.77-5.49,7.67-9.58,16.54-12.23,26.71v.03s-16.79,62.47-16.79,62.47h54.79c10.39,0,19.29-2.17,26.9-6.32h.02Zm-90.83,13.33l19.14-71.26c2.85-10.94,7.29-20.62,13.33-29.05,6.15-8.43,13.61-15.04,22.39-19.82,8.89-4.79,19.03-7.18,30.42-7.18h63.92l-18.97,71.26c-2.96,10.94-7.52,20.62-13.67,29.05-6.04,8.43-13.5,15.04-22.39,19.82-8.77,4.79-18.86,7.18-30.25,7.18h-63.92Zm-57.32,45.79l31.93-118.85s0,0,0,0c5.01-18.96,13.2-35.97,24.61-50.97h0c11.53-15.14,25.52-27.09,41.94-35.79,16.67-8.88,34.89-13.29,54.55-13.29h110.8l-31.75,118.87h0s0,.02,0,.02c-5.13,18.95-13.44,36.02-24.95,51.12h0s0,.02,0,.02c-11.53,15.01-25.5,26.95-41.89,35.74h-.02s-.02.02-.02.02c-16.56,8.77-34.73,13.12-54.37,13.12h-110.81Zm101.76-199.43c-15.49,8.2-28.71,19.48-39.65,33.84-10.82,14.24-18.63,30.42-23.41,48.53l-29.57,110.06h101.68c18.57,0,35.6-4.1,51.1-12.3,15.49-8.32,28.71-19.6,39.65-33.84,10.94-14.35,18.86-30.59,23.75-48.71l29.4-110.06h-101.68c-18.57,0-35.66,4.16-51.27,12.48Z"/></svg>