<?xml version="1.0" encoding="UTF-8"?><svg id="Layer_1" xmlns="http://www.w3.org/2000/svg" viewBox="0 0 994 235"><defs><style>.cls-1{fill:#e93323;}.cls-2{fill:#f7ef50;}.cls-2,.cls-3{fill-rule:evenodd;}.cls-3{fill:#55a9df;}</style></defs><path class="cls-1" d="m170.98,220h-27.86c-34.52,0-62.26-6.15-83.23-18.46-20.96-12.42-34.58-30.65-40.84-54.69-2.62-9.8-3.93-20.45-3.93-31.96,0-16.98,2.79-35.83,8.37-56.57h37.77c-4.56,16.98-6.84,32.24-6.84,45.8,0,51.38,33.04,77.07,99.12,77.07h27.86l-10.42,38.79Zm-16.75-166.11H24.69c2.85-10.37,9-19.43,18.46-27.17,9.57-7.75,19.77-11.62,30.59-11.62h129.54c-2.73,10.37-8.89,19.43-18.46,27.17-9.57,7.75-19.77,11.62-30.59,11.62Z"/><path class="cls-1" d="m191.48,220L246.34,15.09h38.62l-24.61,92.11c2.28-1.14,5.07-2.68,8.37-4.61,30.99-15.95,68.99-24.38,113.99-25.29l6.15-23.41c2.96-10.82,9.29-20,18.97-27.51,9.68-7.52,19.71-11.28,30.08-11.28l-54.69,204.05h-38.62l28.2-104.76c-38.17.8-69.04,7.4-92.63,19.82-20.96,10.82-34.18,26.49-39.65,47-2.96,10.82-9.29,20-18.97,27.51-9.68,7.52-19.71,11.28-30.08,11.28Z"/><path class="cls-1" d="m442.53,220c-10.37,0-18.4-3.76-24.1-11.28-3.87-5.01-5.81-10.71-5.81-17.09,0-3.3.51-6.78,1.54-10.43L458.6,15.09h26.15l9.23,12.65-51.44,192.26Z"/><path class="cls-1" d="m653.94,220h-27.86c-34.52,0-62.26-6.15-83.23-18.46-20.96-12.42-34.58-30.65-40.85-54.69-2.62-9.8-3.93-20.45-3.93-31.96,0-16.98,2.79-35.83,8.37-56.57h37.77c-4.56,16.98-6.84,32.24-6.84,45.8,0,51.38,33.04,77.07,99.12,77.07h27.86l-10.42,38.79Zm-16.75-166.11h-129.54c2.85-10.37,9-19.43,18.46-27.17,9.57-7.75,19.77-11.62,30.59-11.62h129.54c-2.73,10.37-8.89,19.43-18.46,27.17-9.57,7.75-19.77,11.62-30.59,11.62Z"/><path class="cls-1" d="m674.44,220l54.86-204.91h38.62l-24.61,92.11c2.28-1.14,5.07-2.68,8.37-4.61,30.99-15.95,68.99-24.38,113.99-25.29l6.15-23.41c2.96-10.82,9.29-20,18.97-27.51,9.68-7.52,19.71-11.28,30.08-11.28l-54.69,204.05h-38.62l28.2-104.76c-38.17.8-69.04,7.4-92.63,19.82-20.96,10.82-34.18,26.49-39.65,47-2.96,10.82-9.29,20-18.97,27.51-9.68,7.52-19.71,11.28-30.08,11.28Z"/><path class="cls-1" d="m925.49,220c-10.37,0-18.4-3.76-24.1-11.28-3.87-5.01-5.81-10.71-5.81-17.09,0-3.3.51-6.78,1.54-10.43l44.43-166.11h26.15l9.23,12.65-51.44,192.26Z"/><path class="cls-3" d="m143.12,235c-36.13,0-66.79-6.41-90.82-20.52h-.03s-.03-.03-.03-.03c-24.43-14.47-40.45-36-47.7-63.76C1.55,139.48.12,127.52.12,114.9c0-14.39,1.83-29.74,5.37-46.01h-.47l5.2-18.94,1.78-6.62h.43c4.33-10.92,11.58-20.33,21.21-28.22l.03-.03.03-.03C45.56,5.46,59.01.09,73.74.09h149.01l-4.96,18.83c-3.66,13.89-11.86,25.56-23.52,35.01-11.85,9.6-25.3,14.96-40.03,14.96h-80.17c-3.15,13.28-4.64,25-4.64,35.24,0,22.23,6.96,36.61,18.99,45.96,12.75,9.91,33.62,16.11,65.13,16.11h36.81L234.83.09h69.67l-21.28,79.67c25.92-9.87,55.26-15.47,87.83-17.06l3.34-12.69.02-.07c3.9-14.25,12.24-26.09,24.24-35.4C410.46,5.35,423.64.09,437.92.09h54.45l16.34,22.39c2.41-2.59,5.05-5.05,7.89-7.38l.03-.03.04-.03c11.85-9.6,25.3-14.96,40.03-14.96h149.01l-4.96,18.83c-3.66,13.89-11.86,25.56-23.52,35.01-11.85,9.6-25.3,14.96-40.03,14.96h-80.17c-3.15,13.28-4.64,25-4.64,35.24,0,22.23,6.96,36.61,18.99,45.96,12.75,9.91,33.62,16.11,65.13,16.11h36.81L717.79.09h69.67l-21.28,79.67c25.92-9.87,55.26-15.47,87.83-17.06l3.34-12.69.02-.07c3.9-14.25,12.24-26.09,24.24-35.4,11.82-9.18,25-14.43,39.28-14.43h54.45l17.95,24.6-56.27,210.31h-11.51c-14.5,0-27.17-5.53-36.01-17.16-2.07-2.69-3.78-5.53-5.14-8.5l-6.65,24.81h-69.7l27.92-103.72c-27.17,2.32-48.94,8.18-65.79,17.05l-.05.03-.05.03c-17.67,9.12-27.79,21.59-32.04,37.53v.05s-.03.05-.03.05c-3.9,14.25-12.24,26.09-24.24,35.4-11.82,9.18-25,14.43-39.28,14.43h-48.36c-36.13,0-66.78-6.41-90.82-20.52h-.03s-.03-.03-.03-.03c-24.43-14.47-40.46-36-47.7-63.77-2.16-8.09-3.51-16.58-4.09-25.42l-29.36,109.74h-11.51c-14.5,0-27.17-5.53-36.01-17.17-2.07-2.68-3.78-5.52-5.13-8.5l-6.65,24.81h-69.7l27.92-103.72c-27.17,2.32-48.94,8.18-65.79,17.05l-.05.03-.05.03c-17.67,9.12-27.79,21.59-32.04,37.53v.05s-.03.05-.03.05c-3.9,14.25-12.24,26.09-24.24,35.4-11.82,9.18-25,14.43-39.28,14.43h-48.36Zm213.97-119.93c5.1-.34,10.33-.57,15.72-.68l-28.2,104.76h38.62L437.92,15.09c-5.57,0-11.03,1.08-16.4,3.25-4.63,1.87-9.19,4.55-13.68,8.03-9.68,7.52-16.01,16.69-18.97,27.51l-6.15,23.41c-40.45.82-75.24,7.71-104.37,20.68-3.28,1.46-6.48,3-9.62,4.61-3.3,1.94-6.1,3.47-8.37,4.61l24.61-92.11h-38.62l-54.86,204.91c5.57,0,11.03-1.08,16.4-3.25,4.63-1.87,9.19-4.55,13.68-8.03,9.68-7.52,16.01-16.69,18.97-27.51,5.47-20.51,18.69-36.17,39.65-47,20.26-10.67,45.89-17.05,76.91-19.14Zm57.08,66.14c-1.02,3.65-1.54,7.12-1.54,10.43,0,6.38,1.94,12.08,5.81,17.09,5.7,7.52,13.73,11.28,24.1,11.28l51.44-192.26-9.23-12.65h-26.15l-44.43,166.11Zm89.65-112.32c-3.82,16.62-5.74,31.96-5.74,46.01,0,11.51,1.31,22.16,3.93,31.96,6.27,24.04,19.88,42.27,40.85,54.69,20.96,12.31,48.71,18.46,83.23,18.46h27.86l10.42-38.79h-27.86c-66.08,0-99.12-25.69-99.12-77.07,0-9.44,1.1-19.71,3.31-30.8.29-1.47.6-2.95.93-4.44.76-3.44,1.62-6.96,2.59-10.56h-37.77c-.96,3.57-1.84,7.09-2.64,10.56Zm3.83-15c1.01-3.68,2.44-7.2,4.29-10.56.83-1.51,1.75-3,2.76-4.44,3.03-4.36,6.83-8.42,11.41-12.17,9.57-7.75,19.77-11.62,30.59-11.62h129.54c-1.41,5.35-3.73,10.35-6.96,15-3.03,4.36-6.86,8.42-11.5,12.17-9.57,7.75-19.77,11.62-30.59,11.62h-129.54Zm332.4,61.18c5.09-.34,10.33-.57,15.72-.68l-28.2,104.76h38.62l54.69-204.05c-5.57,0-11.03,1.08-16.4,3.25-4.63,1.87-9.19,4.55-13.68,8.03-9.68,7.52-16.01,16.69-18.97,27.51l-6.15,23.41c-40.45.82-75.24,7.71-104.37,20.68-3.28,1.46-6.48,3-9.62,4.61-3.3,1.94-6.1,3.47-8.37,4.61l24.61-92.11h-38.62l-54.86,204.91c5.57,0,11.03-1.08,16.4-3.25,4.63-1.87,9.19-4.55,13.68-8.03,9.68-7.52,16.01-16.69,18.97-27.51,5.47-20.51,18.68-36.17,39.65-47,20.26-10.67,45.89-17.05,76.91-19.14Zm57.08,66.14c-1.03,3.65-1.54,7.12-1.54,10.43,0,6.38,1.94,12.08,5.81,17.09,5.7,7.52,13.73,11.28,24.1,11.28l51.44-192.26-9.23-12.65h-26.15l-44.43,166.11ZM61.26,58.33c-.97,3.6-1.83,7.11-2.59,10.56-.33,1.5-.64,2.98-.93,4.44-2.21,11.1-3.31,21.36-3.31,30.8,0,51.38,33.04,77.07,99.12,77.07h27.86l-10.42,38.79h-27.86c-34.52,0-62.26-6.15-83.23-18.46-20.96-12.42-34.58-30.65-40.84-54.69-2.62-9.8-3.93-20.45-3.93-31.96,0-14.05,1.91-29.39,5.74-46.01.8-3.46,1.68-6.98,2.64-10.56h37.77Zm92.97-4.44c10.82,0,21.02-3.87,30.59-11.62,4.63-3.75,8.46-7.81,11.5-12.17,3.23-4.65,5.55-9.65,6.96-15H73.74c-10.82,0-21.02,3.87-30.59,11.62-4.58,3.75-8.38,7.81-11.41,12.17-1,1.45-1.92,2.93-2.76,4.44-1.85,3.35-3.28,6.87-4.29,10.56h129.54Z"/><path class="cls-1" d="m170.98,220h-27.86c-34.52,0-62.26-6.15-83.23-18.46-20.96-12.42-34.58-30.65-40.84-54.69-2.62-9.8-3.93-20.45-3.93-31.96,0-16.98,2.79-35.83,8.37-56.57h37.77c-4.56,16.98-6.84,32.24-6.84,45.8,0,51.38,33.04,77.07,99.12,77.07h27.86l-10.42,38.79Zm-16.75-166.11H24.69c2.85-10.37,9-19.43,18.46-27.17,9.57-7.75,19.77-11.62,30.59-11.62h129.54c-2.73,10.37-8.89,19.43-18.46,27.17-9.57,7.75-19.77,11.62-30.59,11.62Z"/><path class="cls-1" d="m191.48,220L246.34,15.09h38.62l-24.61,92.11c2.28-1.14,5.07-2.68,8.37-4.61,30.99-15.95,68.99-24.38,113.99-25.29l6.15-23.41c2.96-10.82,9.29-20,18.97-27.51,9.68-7.52,19.71-11.28,30.08-11.28l-54.69,204.05h-38.62l28.2-104.76c-38.17.8-69.04,7.4-92.63,19.82-20.96,10.82-34.18,26.49-39.65,47-2.96,10.82-9.29,20-18.97,27.51-9.68,7.52-19.71,11.28-30.08,11.28Z"/><path class="cls-1" d="m442.53,220c-10.37,0-18.4-3.76-24.1-11.28-3.87-5.01-5.81-10.71-5.81-17.09,0-3.3.51-6.78,1.54-10.43L458.6,15.09h26.15l9.23,12.65-51.44,192.26Z"/><path class="cls-1" d="m653.94,220h-27.86c-34.52,0-62.26-6.15-83.23-18.46-20.96-12.42-34.58-30.65-40.85-54.69-2.62-9.8-3.93-20.45-3.93-31.96,0-16.98,2.79-35.83,8.37-56.57h37.77c-4.56,16.98-6.84,32.24-6.84,45.8,0,51.38,33.04,77.07,99.12,77.07h27.86l-10.42,38.79Zm-16.75-166.11h-129.54c2.85-10.37,9-19.43,18.46-27.17,9.57-7.75,19.77-11.62,30.59-11.62h129.54c-2.73,10.37-8.89,19.43-18.46,27.17-9.57,7.75-19.77,11.62-30.59,11.62Z"/><path class="cls-1" d="m674.44,220l54.86-204.91h38.62l-24.61,92.11c2.28-1.14,5.07-2.68,8.37-4.61,30.99-15.95,68.99-24.38,113.99-25.29l6.15-23.41c2.96-10.82,9.29-20,18.97-27.51,9.68-7.52,19.71-11.28,30.08-11.28l-54.69,204.05h-38.62l28.2-104.76c-38.17.8-69.04,7.4-92.63,19.82-20.96,10.82-34.18,26.49-39.65,47-2.96,10.82-9.29,20-18.97,27.51-9.68,7.52-19.71,11.28-30.08,11.28Z"/><path class="cls-1" d="m925.49,220c-10.37,0-18.4-3.76-24.1-11.28-3.87-5.01-5.81-10.71-5.81-17.09,0-3.3.51-6.78,1.54-10.43l44.43-166.11h26.15l9.23,12.65-51.44,192.26Z"/><path class="cls-2" d="m176.34,227h-33.22c-35.27,0-64.37-6.27-86.77-19.42h-.01s-.01-.01-.01-.01c-22.58-13.38-37.32-33.15-44.05-58.92-2.79-10.46-4.16-21.72-4.16-33.75,0-16.5,2.52-34.52,7.47-54.01h-.08l2.43-8.85.19-.7h0c3.36-11.65,10.36-21.66,20.57-30.03h.02s.02-.03.02-.03c10.64-8.61,22.35-13.18,35-13.18h138.63l-2.32,8.79c-3.17,12.01-10.27,22.29-20.82,30.83-10.64,8.61-22.35,13.18-34.99,13.18h-86.41c-4.31,16.24-6.4,30.64-6.4,43.24,0,24.08,7.65,41.06,22.08,52.28,14.76,11.48,37.72,17.79,70.04,17.79h36.99l-14.19,52.79ZM61.26,58.33c-.23.86-.45,1.71-.67,2.56-.38,1.49-.75,2.98-1.1,4.44-3.38,14.2-5.06,27.13-5.06,38.8,0,51.38,33.04,77.07,99.12,77.07h27.86l-10.42,38.79h-27.86c-34.52,0-62.26-6.15-83.23-18.46-20.96-12.42-34.58-30.65-40.84-54.69-2.62-9.8-3.93-20.45-3.93-31.96,0-16.28,2.57-34.28,7.7-54.01.22-.85.45-1.7.68-2.56h37.77Zm92.97-4.44c10.82,0,21.02-3.87,30.59-11.62,7.35-5.95,12.69-12.68,16-20.17,1-2.26,1.82-4.6,2.45-7H73.74c-10.82,0-21.02,3.87-30.59,11.62-7.26,5.95-12.58,12.68-15.94,20.17-.65,1.45-1.23,2.93-1.74,4.44-.28.84-.54,1.7-.78,2.56h129.54Zm28.13,173.11L240.97,8.09h53.11l-22.83,85.45c29.77-14.1,65.18-21.72,106.03-23.1l4.83-18.37v-.03c3.41-12.42,10.67-22.84,21.44-31.2,10.68-8.29,22.18-12.75,34.37-12.75h9.12l-58.44,218.05h-53.13l28.11-104.44c-33.13,1.6-59.74,7.95-80.15,18.7h-.02s-.02.03-.02.03c-19.43,10.03-31.2,24.21-36.1,42.58v.02s-.01.02-.01.02c-3.4,12.42-10.66,22.84-21.43,31.2-10.68,8.29-22.18,12.75-34.37,12.75h-9.12Zm183.13-112.39c2.41-.1,4.84-.18,7.31-.23l-28.2,104.76h38.62L437.92,15.09c-2.49,0-4.97.22-7.42.65-7.75,1.37-15.3,4.92-22.66,10.63-9.68,7.52-16.01,16.69-18.97,27.51l-6.15,23.41c-44.95.91-82.9,9.32-113.87,25.23-.04.02-.08.04-.12.06-3.3,1.94-6.1,3.47-8.37,4.61l24.61-92.11h-38.62l-54.86,204.91c2.49,0,4.97-.22,7.42-.65,7.75-1.37,15.3-4.92,22.66-10.63,9.68-7.52,16.01-16.69,18.97-27.51,5.47-20.51,18.69-36.17,39.65-47,22.06-11.62,50.5-18.15,85.32-19.6Zm82.41,112.39h-5.37c-12.3,0-22.49-4.59-29.66-14.03-4.81-6.24-7.25-13.44-7.25-21.34,0-4.02.62-8.12,1.79-12.27L453.23,8.09h35.08l13.3,18.22-53.69,200.68Zm-33.74-45.79c-1.02,3.65-1.54,7.12-1.54,10.43,0,6.38,1.94,12.08,5.81,17.09,5.7,7.52,13.73,11.28,24.1,11.28l51.44-192.26-9.23-12.65h-26.15l-44.43,166.11Zm245.14,45.79h-33.22c-35.27,0-64.37-6.27-86.77-19.42h-.01s-.01-.01-.01-.01c-22.58-13.38-37.32-33.15-44.05-58.93-2.79-10.45-4.16-21.71-4.16-33.74,0-16.5,2.52-34.52,7.47-54.01h-.08l2.43-8.85.19-.7h0c3.37-11.65,10.36-21.66,20.57-30.03h.02s.02-.03.02-.03c10.64-8.61,22.35-13.18,34.99-13.18h138.63l-2.32,8.79c-3.17,12.01-10.27,22.29-20.82,30.83-10.64,8.61-22.35,13.18-34.99,13.18h-86.41c-4.31,16.24-6.4,30.64-6.4,43.24,0,24.08,7.65,41.06,22.08,52.28,14.76,11.48,37.72,17.79,70.04,17.79h36.99l-14.19,52.79Zm-115.08-168.67c-.23.86-.45,1.71-.67,2.56-.39,1.49-.75,2.98-1.1,4.44-3.38,14.2-5.06,27.13-5.06,38.8,0,51.38,33.04,77.07,99.12,77.07h27.86l-10.42,38.79h-27.86c-34.52,0-62.26-6.15-83.23-18.46-20.96-12.42-34.58-30.65-40.85-54.69-2.62-9.8-3.93-20.45-3.93-31.96,0-16.28,2.57-34.28,7.7-54.01.22-.85.45-1.7.68-2.56h37.77Zm92.97-4.44c10.82,0,21.02-3.87,30.59-11.62,7.35-5.95,12.69-12.68,16-20.17,1-2.26,1.82-4.6,2.45-7h-129.54c-10.82,0-21.02,3.87-30.59,11.62-7.26,5.95-12.58,12.68-15.94,20.17-.65,1.45-1.23,2.93-1.74,4.44-.28.84-.54,1.7-.78,2.56h129.54Zm28.14,173.11l58.61-218.91h53.11l-22.83,85.45c29.77-14.1,65.18-21.72,106.03-23.1l4.83-18.37v-.03c3.41-12.42,10.67-22.84,21.44-31.2,10.68-8.29,22.18-12.75,34.37-12.75h9.12l-58.44,218.05h-53.13l28.11-104.44c-33.13,1.6-59.74,7.95-80.15,18.7h-.03s-.02.03-.02.03c-19.43,10.03-31.2,24.21-36.1,42.58v.02s-.01.02-.01.02c-3.4,12.42-10.66,22.84-21.43,31.2-10.68,8.29-22.18,12.75-34.37,12.75h-9.12Zm183.13-112.39c2.41-.1,4.84-.18,7.31-.23l-28.2,104.76h38.62l54.69-204.05c-2.49,0-4.97.22-7.42.65-7.75,1.37-15.3,4.92-22.66,10.63-9.68,7.52-16.01,16.69-18.97,27.51l-6.15,23.41c-44.95.91-82.9,9.32-113.87,25.23-.04.02-.08.04-.12.06-3.3,1.94-6.1,3.47-8.37,4.61l24.61-92.11h-38.62l-54.86,204.91c2.49,0,4.97-.22,7.42-.65,7.75-1.37,15.3-4.92,22.66-10.63,9.68-7.52,16.01-16.69,18.97-27.51,5.47-20.51,18.68-36.17,39.65-47,22.06-11.62,50.5-18.15,85.32-19.6Zm82.41,112.39h-5.37c-12.3,0-22.49-4.59-29.66-14.03-4.82-6.24-7.25-13.44-7.25-21.34,0-4.02.62-8.12,1.79-12.28,0-.01,0-.03.01-.04l45.8-171.22h35.08l13.3,18.22-53.69,200.68Zm-33.74-45.79c-1.03,3.65-1.54,7.12-1.54,10.43,0,6.38,1.94,12.08,5.81,17.09,5.7,7.52,13.73,11.28,24.1,11.28l51.44-192.26-9.23-12.65h-26.15l-44.43,166.11Z"/></svg>