<?xml version="1.0" encoding="UTF-8"?><svg id="Layer_1" xmlns="http://www.w3.org/2000/svg" viewBox="0 0 348 51.12"><defs><style>.cls-1{fill:#e93323;}.cls-2{fill:#f7ef50;}.cls-2,.cls-3{fill-rule:evenodd;}.cls-3{fill:#55a9df;}</style></defs><path class="cls-1" d="m197.39,43.28h-7.77l33.28-34.16h7.8l-33.31,34.16Zm19.64,0h-18.59l6.23-6.46h18.59l-6.23,6.46Zm-16.34-21.81l-4.27-3.62,8.28-8.57c4.23-.11,8.45-.17,12.64-.17l-1.77,6.49h-9.28l-5.61,5.86Z"/><path class="cls-1" d="m224.98,43.28l9.14-34.13h6.43l-4.1,15.34c.38-.19.84-.45,1.39-.77,5.16-2.66,11.49-4.06,18.99-4.21l1.02-3.9c.49-1.8,1.55-3.33,3.16-4.58,1.61-1.25,3.28-1.88,5.01-1.88l-9.11,33.99h-6.43l4.7-17.45c-6.36.13-11.5,1.23-15.43,3.3-3.49,1.8-5.69,4.41-6.6,7.83-.49,1.8-1.55,3.33-3.16,4.58-1.61,1.25-3.28,1.88-5.01,1.88Z"/><path class="cls-1" d="m292.42,43.28c-1.8,0-3.16-.65-4.07-1.94-.61-.85-.91-1.79-.91-2.82,0-.55.09-1.12.26-1.71l2.42-9.02c-6.11.15-11.25,1.45-15.43,3.9-1.8,1.06-3.34,2.38-4.61,3.96-1.25,1.58-2.16,3.42-2.73,5.52l-.57,2.11h-6.43l7.54-28.13c1.8,0,3.15.65,4.04,1.94.59.85.88,1.8.88,2.85,0,.53-.08,1.09-.23,1.68l-1.54,5.72c.21-.13.42-.26.63-.37.23-.11.44-.24.63-.37,5.5-3.28,12-4.99,19.5-5.12l1.57-5.86h-19.02c-1.8,0-3.15-.65-4.04-1.94-.61-.85-.91-1.81-.91-2.88,0-.53.08-1.08.23-1.65h25.34c1.8,0,3.16.65,4.07,1.94.59.84.88,1.77.88,2.82,0,.53-.09,1.1-.26,1.71-2.45,9.17-4.86,18.39-7.23,27.67Z"/><path class="cls-1" d="m314.54,36.82c1.9,0,3.58-.4,5.04-1.2,1.48-.8,2.72-1.9,3.73-3.3,1.02-1.4,1.78-3.02,2.28-4.84l3.16-11.87h-10.65c-1.9,0-3.59.4-5.07,1.2-1.46.8-2.7,1.9-3.73,3.3-1.01,1.4-1.75,3.02-2.22,4.84l-3.19,11.87h10.65Zm-1.74,6.46h-16.94l4.92-18.33c.8-3.02,2.1-5.71,3.9-8.08,1.82-2.39,4.02-4.27,6.6-5.64,2.6-1.39,5.45-2.08,8.54-2.08h16.94l-4.9,18.33c-.82,3.02-2.13,5.72-3.96,8.11-1.82,2.37-4.02,4.25-6.6,5.64-2.58,1.37-5.42,2.05-8.51,2.05Z"/><path class="cls-3" d="m183.7,45.78l26.96-27.67h-3.28l-6.5,6.79-8.1-6.86,10.85-11.22,1.02-.03c4.25-.11,8.49-.17,12.71-.17h3.27l-.48,1.75,1.7-1.75h14.78l-.03.03h7.21l-3.55,13.27c4.32-1.64,9.21-2.58,14.63-2.84l.56-2.11h0c.65-2.39,2.04-4.36,4.04-5.91,1.97-1.53,4.16-2.4,6.54-2.4h28.92c2.48,0,4.66.94,6.11,2.99h0c.89,1.27,1.34,2.71,1.34,4.26,0,.77-.12,1.54-.33,2.3.2-.29.41-.57.62-.86h0c2.03-2.67,4.51-4.79,7.42-6.33,2.98-1.59,6.23-2.37,9.71-2.37h20.19l-5.74,21.48h0c-.9,3.32-2.36,6.32-4.38,8.98h0s0,0,0,0c-2.03,2.65-4.5,4.76-7.4,6.32h0s0,0,0,0c-2.96,1.57-6.2,2.34-9.68,2.34h-20.38c-2.48,0-4.66-.94-6.11-2.99-.9-1.27-1.37-2.71-1.37-4.26,0-.8.12-1.6.35-2.38l1.51-5.64c-4.28.46-7.87,1.59-10.85,3.34-1.55.91-2.85,2.04-3.93,3.37-1.02,1.28-1.78,2.81-2.27,4.61l-1.07,3.95h-11.6l.04-.14h-9.89l4.65-17.28c-4.53.39-8.15,1.36-10.96,2.84h0s0,0,0,0c-2.94,1.52-4.63,3.6-5.34,6.25h0s0,.02,0,.02c-.65,2.37-2.04,4.35-4.04,5.9-1.97,1.53-4.16,2.4-6.54,2.4h-3.26l1.39-5.2-5.02,5.2h-34.4Zm41.28-2.5c.93,0,1.84-.18,2.73-.54.77-.31,1.53-.76,2.28-1.34,1.61-1.25,2.67-2.78,3.16-4.58.91-3.42,3.11-6.03,6.6-7.83,3.37-1.78,7.64-2.84,12.81-3.19.85-.06,1.72-.1,2.62-.11l-4.7,17.45h6.43l9.11-33.99c-.93,0-1.84.18-2.73.54-.77.31-1.53.76-2.28,1.34-1.61,1.25-2.67,2.78-3.16,4.58l-1.02,3.9c-6.74.14-12.53,1.29-17.39,3.45-.55.24-1.08.5-1.6.77-.55.32-1.02.58-1.39.77l4.1-15.34h-6.43l-9.14,34.13Zm5.55-30.41l-5.74,21.45h-15.17l20.91-21.45Zm-25.85,23.95l-6.23,6.46h18.59l6.23-6.46h-18.59Zm26.02-27.7h-7.8l-33.28,34.16h7.77l33.31-34.16Zm37.59,6.05c-.14,0-.27-.01-.41-.01l-7.54,28.13h6.43l.57-2.11c.57-2.11,1.48-3.95,2.73-5.52,1.27-1.58,2.81-2.89,4.61-3.96,3.56-2.09,7.83-3.34,12.8-3.76.85-.07,1.73-.12,2.62-.14l-2.42,9.02c-.17.59-.26,1.16-.26,1.71,0,1.02.3,1.96.91,2.82.91,1.29,2.27,1.94,4.07,1.94,2.37-9.28,4.78-18.5,7.23-27.67.17-.61.26-1.18.26-1.71,0-1.04-.29-1.98-.88-2.82-.91-1.29-2.27-1.94-4.07-1.94h-25.34c-.15.57-.23,1.12-.23,1.65,0,.74.15,1.43.44,2.07.13.28.28.55.47.81.82,1.19,2.03,1.83,3.63,1.92.14,0,.27.01.41.01h19.02l-1.57,5.86c-6.69.12-12.59,1.49-17.7,4.12-.61.32-1.21.65-1.8,1-.19.13-.4.26-.63.37-.21.11-.42.24-.63.37l1.54-5.72c.15-.59.23-1.15.23-1.68,0-.73-.14-1.41-.43-2.04-.12-.28-.28-.54-.45-.8-.82-1.19-2.03-1.83-3.63-1.92Zm6.79,2.94c.15.59.22,1.2.22,1.83,0,.77-.11,1.54-.31,2.3h0s-.05.18-.05.18c4.49-1.98,9.47-3.09,14.91-3.38l.25-.93h-15.02Zm25.7,6.84l-4.92,18.33h16.94c3.09,0,5.93-.68,8.51-2.05,2.58-1.39,4.78-3.26,6.6-5.64,1.82-2.39,3.14-5.1,3.96-8.11l4.9-18.33h-16.94c-3.09,0-5.94.69-8.54,2.08-2.58,1.37-4.78,3.25-6.6,5.64-1.8,2.37-3.1,5.07-3.9,8.08Zm-86.03-15.82c.86,0,1.73,0,2.59,0l-1.77,6.49h-9.28l-5.61,5.86-4.27-3.62,8.28-8.57c3.36-.09,6.71-.14,10.05-.16Zm103.63,24.3h0c1.14-.61,2.09-1.46,2.88-2.56h0s0-.02,0-.02c.83-1.14,1.46-2.46,1.88-4.02,0,0,0,0,0,0l2.32-8.72h-7.4c-1.54,0-2.81.32-3.88.89-1.12.61-2.08,1.46-2.89,2.57-.81,1.13-1.42,2.46-1.83,4.01h0s-2.35,8.74-2.35,8.74h7.39c1.54,0,2.8-.32,3.84-.89h0Zm-14.5,3.39l3.19-11.87c.47-1.82,1.21-3.44,2.22-4.84,1.02-1.4,2.27-2.51,3.73-3.3,1.48-.8,3.17-1.2,5.07-1.2h10.65l-3.16,11.87c-.49,1.82-1.25,3.44-2.28,4.84-1.01,1.4-2.25,2.51-3.73,3.3-1.46.8-3.14,1.2-5.04,1.2h-10.65Z"/><path class="cls-1" d="m197.39,43.28h-7.77l33.28-34.16h7.8l-33.31,34.16Zm19.64,0h-18.59l6.23-6.46h18.59l-6.23,6.46Zm-16.34-21.81l-4.27-3.62,8.28-8.57c4.23-.11,8.45-.17,12.64-.17l-1.77,6.49h-9.28l-5.61,5.86Z"/><path class="cls-1" d="m224.98,43.28l9.14-34.13h6.43l-4.1,15.34c.38-.19.84-.45,1.39-.77,5.16-2.66,11.49-4.06,18.99-4.21l1.02-3.9c.49-1.8,1.55-3.33,3.16-4.58,1.61-1.25,3.28-1.88,5.01-1.88l-9.11,33.99h-6.43l4.7-17.45c-6.36.13-11.5,1.23-15.43,3.3-3.49,1.8-5.69,4.41-6.6,7.83-.49,1.8-1.55,3.33-3.16,4.58-1.61,1.25-3.28,1.88-5.01,1.88Z"/><path class="cls-1" d="m292.42,43.28c-1.8,0-3.16-.65-4.07-1.94-.61-.85-.91-1.79-.91-2.82,0-.55.09-1.12.26-1.71l2.42-9.02c-6.11.15-11.25,1.45-15.43,3.9-1.8,1.06-3.34,2.38-4.61,3.96-1.25,1.58-2.16,3.42-2.73,5.52l-.57,2.11h-6.43l7.54-28.13c1.8,0,3.15.65,4.04,1.94.59.85.88,1.8.88,2.85,0,.53-.08,1.09-.23,1.68l-1.54,5.72c.21-.13.42-.26.63-.37.23-.11.44-.24.63-.37,5.5-3.28,12-4.99,19.5-5.12l1.57-5.86h-19.02c-1.8,0-3.15-.65-4.04-1.94-.61-.85-.91-1.81-.91-2.88,0-.53.08-1.08.23-1.65h25.34c1.8,0,3.16.65,4.07,1.94.59.84.88,1.77.88,2.82,0,.53-.09,1.1-.26,1.71-2.45,9.17-4.86,18.39-7.23,27.67Z"/><path class="cls-1" d="m314.54,36.82c1.9,0,3.58-.4,5.04-1.2,1.48-.8,2.72-1.9,3.73-3.3,1.02-1.4,1.78-3.02,2.28-4.84l3.16-11.87h-10.65c-1.9,0-3.59.4-5.07,1.2-1.46.8-2.7,1.9-3.73,3.3-1.01,1.4-1.75,3.02-2.22,4.84l-3.19,11.87h10.65Zm-1.74,6.46h-16.94l4.92-18.33c.8-3.02,2.1-5.71,3.9-8.08,1.82-2.39,4.02-4.27,6.6-5.64,2.6-1.39,5.45-2.08,8.54-2.08h16.94l-4.9,18.33c-.82,3.02-2.13,5.72-3.96,8.11-1.82,2.37-4.02,4.25-6.6,5.64-2.58,1.37-5.42,2.05-8.51,2.05Z"/><path class="cls-2" d="m186.86,44.45l26.96-27.67h-7.01l-6.02,6.3-6.06-5.13,9.48-9.81h.48c4.24-.13,8.47-.18,12.67-.18h1.53l-1.37,5.03,4.9-5.03h11.06l-.03.03h8.63l-3.8,14.23c4.96-2.35,10.86-3.62,17.66-3.85l.8-3.06h0c.57-2.07,1.78-3.81,3.57-5.2,1.78-1.38,3.69-2.12,5.73-2.12h1.52l-9.73,36.32h-8.85l4.68-17.4c-5.52.27-9.95,1.32-13.35,3.11h0s0,0,0,0c-3.24,1.67-5.2,4.03-6.01,7.09h0s0,0,0,0c-.57,2.07-1.78,3.8-3.57,5.2-1.78,1.38-3.69,2.12-5.73,2.12h-1.52l2.28-8.5-8.2,8.5h-30.67Zm38.96-8.79l7.33-27.36-26.68,27.36h19.35Zm-21.13,1.17l-6.23,6.46h18.59l6.23-6.46h-18.59Zm26.02-27.7h-7.8l-33.28,34.16h7.77l33.31-34.16Zm23.26,16.61c.4-.02.81-.03,1.22-.04l-4.7,17.45h6.43l9.11-33.99c-.42,0-.83.04-1.24.11-1.29.23-2.55.82-3.77,1.77-1.61,1.25-2.67,2.78-3.16,4.58l-1.02,3.9c-7.49.15-13.81,1.55-18.97,4.2,0,0-.01,0-.02.01-.55.32-1.02.58-1.39.77l4.1-15.34h-6.43l-9.14,34.13c.42,0,.83-.04,1.24-.11,1.29-.23,2.55-.82,3.77-1.77,1.61-1.25,2.67-2.78,3.16-4.58.91-3.42,3.11-6.03,6.6-7.83,3.67-1.93,8.41-3.02,14.21-3.26Zm-36.62-16.61c-.4,0-.81,0-1.21,0-3.79,0-7.61.07-11.43.17l-8.28,8.57,4.27,3.62,5.61-5.86h9.28l1.77-6.49Zm75.97,35.33h-.91c-2.12,0-3.86-.78-5.02-2.43-.74-1.05-1.13-2.22-1.13-3.49,0-.67.1-1.34.3-2.02l2.01-7.48c-5.27.32-9.69,1.56-13.3,3.67-1.69.99-3.11,2.22-4.29,3.68-1.14,1.44-1.99,3.13-2.52,5.1l-.8,2.97h-8.85l8.17-30.46h.89c.45,0,.88.04,1.3.11-.64-.99-.95-2.1-.95-3.3,0-.64.09-1.29.27-1.95l.23-.87h26.23c2.12,0,3.86.78,5.02,2.43h0c.73,1.04,1.1,2.21,1.1,3.49,0,.65-.1,1.33-.3,2.02-2.45,9.16-4.86,18.38-7.23,27.65l-.22.88Zm6.33-28.84c.17-.61.26-1.18.26-1.71,0-1.04-.29-1.98-.88-2.82-.91-1.29-2.27-1.94-4.07-1.94h-25.34c-.15.57-.23,1.12-.23,1.65,0,1.06.3,2.02.91,2.88.89,1.29,2.24,1.94,4.04,1.94h19.02l-1.57,5.86c-7.41.13-13.85,1.8-19.32,5.02-.06.04-.12.07-.18.11-.19.13-.4.26-.63.37-.21.11-.42.24-.63.37l1.54-5.72c.15-.59.23-1.15.23-1.68,0-1.04-.29-1.99-.88-2.85-.89-1.29-2.24-1.94-4.04-1.94l-7.54,28.13h6.43l.57-2.11c.57-2.11,1.48-3.95,2.73-5.52,1.27-1.58,2.81-2.89,4.61-3.96,3.89-2.28,8.63-3.57,14.21-3.85.4-.02.81-.04,1.22-.05l-2.42,9.02c-.17.59-.26,1.16-.26,1.71,0,1.02.3,1.96.91,2.82.91,1.29,2.27,1.94,4.07,1.94,2.37-9.28,4.78-18.5,7.23-27.67Zm-26.75,9.3c5.21-2.83,11.22-4.35,17.99-4.58l.95-3.56h-17.5c-.45,0-.89-.04-1.3-.11.62.99.93,2.09.93,3.27,0,.64-.09,1.3-.26,1.97h0s0,.01,0,.01l-.8,2.99Zm46.12,9.69h0c1.32-.71,2.43-1.69,3.33-2.96h0s0,0,0,0c.93-1.28,1.63-2.76,2.09-4.45,0,0,0,0,0,0l2.77-10.4h-9.13c-1.73,0-3.22.36-4.51,1.05-1.3.71-2.41,1.69-3.34,2.96-.91,1.28-1.6,2.76-2.04,4.45h0s-2.8,10.41-2.8,10.41h9.13c1.73,0,3.21-.36,4.48-1.05h0Zm-15.13,2.22l3.19-11.87c.47-1.82,1.21-3.44,2.22-4.84,1.02-1.4,2.27-2.51,3.73-3.3,1.48-.8,3.17-1.2,5.07-1.2h10.65l-3.16,11.87c-.49,1.82-1.25,3.44-2.28,4.84-1.01,1.4-2.25,2.51-3.73,3.3-1.46.8-3.14,1.2-5.04,1.2h-10.65Zm-9.55,7.63l5.32-19.8s0,0,0,0c.83-3.16,2.2-5.99,4.1-8.49h0c1.92-2.52,4.25-4.51,6.99-5.96,2.78-1.48,5.81-2.21,9.09-2.21h18.46l-5.29,19.8h0s0,0,0,0c-.85,3.16-2.24,6-4.16,8.52h0s0,0,0,0c-1.92,2.5-4.25,4.49-6.98,5.95h0s0,0,0,0c-2.76,1.46-5.79,2.19-9.06,2.19h-18.46Zm16.95-33.22c-2.58,1.37-4.78,3.25-6.6,5.64-1.8,2.37-3.1,5.07-3.9,8.08l-4.92,18.33h16.94c3.09,0,5.93-.68,8.51-2.05,2.58-1.39,4.78-3.26,6.6-5.64,1.82-2.39,3.14-5.1,3.96-8.11l4.9-18.33h-16.94c-3.09,0-5.94.69-8.54,2.08Z"/><path class="cls-1" d="m37.11,43.67h-4.75c-5.89,0-10.62-1.05-14.19-3.15-3.57-2.12-5.9-5.23-6.97-9.33-.45-1.67-.67-3.49-.67-5.45,0-2.89.48-6.11,1.43-9.65h6.44c-.78,2.89-1.17,5.5-1.17,7.81,0,8.76,5.63,13.14,16.9,13.14h4.75l-1.78,6.62Zm-2.86-28.33H12.16c.49-1.77,1.53-3.31,3.15-4.63,1.63-1.32,3.37-1.98,5.22-1.98h22.09c-.47,1.77-1.52,3.31-3.15,4.63-1.63,1.32-3.37,1.98-5.22,1.98Z"/><path class="cls-1" d="m40.61,43.67l9.36-34.94h6.59l-4.2,15.71c.39-.19.86-.46,1.43-.79,5.28-2.72,11.76-4.16,19.44-4.31l1.05-3.99c.51-1.85,1.58-3.41,3.24-4.69,1.65-1.28,3.36-1.92,5.13-1.92l-9.33,34.8h-6.59l4.81-17.87c-6.51.14-11.77,1.26-15.8,3.38-3.58,1.85-5.83,4.52-6.76,8.01-.51,1.85-1.58,3.41-3.24,4.69-1.65,1.28-3.36,1.92-5.13,1.92Z"/><path class="cls-1" d="m83.42,43.67c-1.77,0-3.14-.64-4.11-1.92-.66-.85-.99-1.83-.99-2.91,0-.56.09-1.16.26-1.78l7.58-28.33h4.46l1.57,2.16-8.77,32.79Z"/><path class="cls-1" d="m119.47,43.67h-4.75c-5.89,0-10.62-1.05-14.19-3.15-3.58-2.12-5.9-5.23-6.97-9.33-.45-1.67-.67-3.49-.67-5.45,0-2.89.48-6.11,1.43-9.65h6.44c-.78,2.89-1.17,5.5-1.17,7.81,0,8.76,5.63,13.14,16.9,13.14h4.75l-1.78,6.62Zm-2.86-28.33h-22.09c.49-1.77,1.53-3.31,3.15-4.63,1.63-1.32,3.37-1.98,5.22-1.98h22.09c-.47,1.77-1.52,3.31-3.15,4.63-1.63,1.32-3.37,1.98-5.22,1.98Z"/><path class="cls-1" d="m122.97,43.67l9.36-34.94h6.59l-4.2,15.71c.39-.19.86-.46,1.43-.79,5.28-2.72,11.76-4.16,19.44-4.31l1.05-3.99c.51-1.85,1.58-3.41,3.24-4.69,1.65-1.28,3.36-1.92,5.13-1.92l-9.33,34.8h-6.59l4.81-17.87c-6.51.14-11.77,1.26-15.8,3.38-3.58,1.85-5.83,4.52-6.76,8.01-.51,1.85-1.58,3.41-3.24,4.69-1.65,1.28-3.36,1.92-5.13,1.92Z"/><path class="cls-1" d="m165.78,43.67c-1.77,0-3.14-.64-4.11-1.92-.66-.85-.99-1.83-.99-2.91,0-.56.09-1.16.26-1.78l7.58-28.33h4.46l1.57,2.16-8.77,32.79Z"/><path class="cls-3" d="m32.36,46.23c-6.16,0-11.39-1.09-15.49-3.5h0s0,0,0,0c-4.17-2.47-6.9-6.14-8.13-10.87-.51-1.91-.76-3.95-.76-6.1,0-2.45.31-5.07.91-7.85h-.08l.89-3.23.3-1.13h.07c.74-1.86,1.98-3.47,3.62-4.81h0s0,0,0,0c2.02-1.64,4.31-2.55,6.83-2.55h25.41l-.85,3.21c-.62,2.37-2.02,4.36-4.01,5.97-2.02,1.64-4.31,2.55-6.83,2.55h-13.67c-.54,2.26-.79,4.26-.79,6.01,0,3.79,1.19,6.24,3.24,7.84,2.17,1.69,5.73,2.75,11.11,2.75h6.28l7.58-28.33h11.88l-3.63,13.59c4.42-1.68,9.42-2.64,14.98-2.91l.57-2.16h0c.66-2.44,2.09-4.46,4.13-6.05,2.02-1.56,4.26-2.46,6.7-2.46h9.29l2.79,3.82c.41-.44.86-.86,1.34-1.26h0s0,0,0,0c2.02-1.64,4.31-2.55,6.83-2.55h25.41l-.85,3.21c-.62,2.37-2.02,4.36-4.01,5.97-2.02,1.64-4.31,2.55-6.83,2.55h-13.67c-.54,2.26-.79,4.26-.79,6.01,0,3.79,1.19,6.24,3.24,7.84,2.17,1.69,5.73,2.75,11.11,2.75h6.28l7.58-28.33h11.88l-3.63,13.59c4.42-1.68,9.42-2.64,14.98-2.91l.57-2.16h0c.66-2.44,2.09-4.46,4.13-6.05,2.02-1.56,4.26-2.46,6.7-2.46h9.29l3.06,4.19-9.6,35.86h-1.96c-2.47,0-4.63-.94-6.14-2.93-.35-.46-.65-.94-.88-1.45l-1.13,4.23h-11.89l4.76-17.69c-4.63.4-8.35,1.4-11.22,2.91h0s0,0,0,0c-3.01,1.56-4.74,3.68-5.46,6.4h0s0,.02,0,.02c-.66,2.43-2.09,4.45-4.13,6.04-2.02,1.56-4.26,2.46-6.7,2.46h-8.25c-6.16,0-11.39-1.09-15.49-3.5h0s0,0,0,0c-4.17-2.47-6.9-6.14-8.13-10.87-.37-1.38-.6-2.83-.7-4.34l-5.01,18.71h-1.96c-2.47,0-4.63-.94-6.14-2.93-.35-.46-.64-.94-.88-1.45l-1.13,4.23h-11.89l4.76-17.69c-4.63.4-8.35,1.4-11.22,2.91h0s0,0,0,0c-3.01,1.56-4.74,3.68-5.46,6.4h0s0,.02,0,.02c-.66,2.43-2.09,4.45-4.13,6.04-2.02,1.56-4.26,2.46-6.7,2.46h-8.25Zm36.49-20.45c.87-.06,1.76-.1,2.68-.12l-4.81,17.87h6.59l9.33-34.8c-.95,0-1.88.18-2.8.55-.79.32-1.57.78-2.33,1.37-1.65,1.28-2.73,2.85-3.24,4.69l-1.05,3.99c-6.9.14-12.83,1.32-17.8,3.53-.56.25-1.11.51-1.64.79-.56.33-1.04.59-1.43.79l4.2-15.71h-6.59l-9.36,34.94c.95,0,1.88-.18,2.8-.55.79-.32,1.57-.78,2.33-1.37,1.65-1.28,2.73-2.85,3.24-4.69.93-3.5,3.19-6.17,6.76-8.01,3.45-1.82,7.83-2.91,13.12-3.26Zm9.73,11.28c-.17.62-.26,1.21-.26,1.78,0,1.09.33,2.06.99,2.91.97,1.28,2.34,1.92,4.11,1.92l8.77-32.79-1.57-2.16h-4.46l-7.58,28.33Zm15.29-19.15c-.65,2.84-.98,5.45-.98,7.85,0,1.96.22,3.78.67,5.45,1.07,4.1,3.39,7.21,6.97,9.33,3.57,2.1,8.31,3.15,14.19,3.15h4.75l1.78-6.62h-4.75c-11.27,0-16.9-4.38-16.9-13.14,0-1.61.19-3.36.56-5.25.05-.25.1-.5.16-.76.13-.59.28-1.19.44-1.8h-6.44c-.16.61-.31,1.21-.45,1.8Zm.65-2.56c.17-.63.42-1.23.73-1.8.14-.26.3-.51.47-.76.52-.74,1.17-1.44,1.95-2.08,1.63-1.32,3.37-1.98,5.22-1.98h22.09c-.24.91-.64,1.76-1.19,2.56-.52.74-1.17,1.44-1.96,2.08-1.63,1.32-3.37,1.98-5.22,1.98h-22.09Zm56.69,10.43c.87-.06,1.76-.1,2.68-.12l-4.81,17.87h6.59l9.33-34.8c-.95,0-1.88.18-2.8.55-.79.32-1.57.78-2.33,1.37-1.65,1.28-2.73,2.85-3.24,4.69l-1.05,3.99c-6.9.14-12.83,1.32-17.8,3.53-.56.25-1.11.51-1.64.79-.56.33-1.04.59-1.43.79l4.2-15.71h-6.59l-9.36,34.94c.95,0,1.88-.18,2.8-.55.79-.32,1.57-.78,2.33-1.37,1.65-1.28,2.73-2.85,3.24-4.69.93-3.5,3.19-6.17,6.76-8.01,3.45-1.82,7.83-2.91,13.12-3.26Zm9.73,11.28c-.17.62-.26,1.21-.26,1.78,0,1.09.33,2.06.99,2.91.97,1.28,2.34,1.92,4.11,1.92l8.77-32.79-1.57-2.16h-4.46l-7.58,28.33ZM18.4,16.1c-.16.61-.31,1.21-.44,1.8-.06.26-.11.51-.16.76-.38,1.89-.56,3.64-.56,5.25,0,8.76,5.63,13.14,16.9,13.14h4.75l-1.78,6.62h-4.75c-5.89,0-10.62-1.05-14.19-3.15-3.57-2.12-5.9-5.23-6.97-9.33-.45-1.67-.67-3.49-.67-5.45,0-2.4.33-5.01.98-7.85.14-.59.29-1.19.45-1.8h6.44Zm15.85-.76c1.85,0,3.58-.66,5.22-1.98.79-.64,1.44-1.33,1.96-2.08.55-.79.95-1.65,1.19-2.56h-22.09c-1.85,0-3.58.66-5.22,1.98-.78.64-1.43,1.33-1.95,2.08-.17.25-.33.5-.47.76-.31.57-.56,1.17-.73,1.8h22.09Z"/><path class="cls-1" d="m37.11,43.67h-4.75c-5.89,0-10.62-1.05-14.19-3.15-3.57-2.12-5.9-5.23-6.97-9.33-.45-1.67-.67-3.49-.67-5.45,0-2.89.48-6.11,1.43-9.65h6.44c-.78,2.89-1.17,5.5-1.17,7.81,0,8.76,5.63,13.14,16.9,13.14h4.75l-1.78,6.62Zm-2.86-28.33H12.16c.49-1.77,1.53-3.31,3.15-4.63,1.63-1.32,3.37-1.98,5.22-1.98h22.09c-.47,1.77-1.52,3.31-3.15,4.63-1.63,1.32-3.37,1.98-5.22,1.98Z"/><path class="cls-1" d="m40.61,43.67l9.36-34.94h6.59l-4.2,15.71c.39-.19.86-.46,1.43-.79,5.28-2.72,11.76-4.16,19.44-4.31l1.05-3.99c.51-1.85,1.58-3.41,3.24-4.69,1.65-1.28,3.36-1.92,5.13-1.92l-9.33,34.8h-6.59l4.81-17.87c-6.51.14-11.77,1.26-15.8,3.38-3.58,1.85-5.83,4.52-6.76,8.01-.51,1.85-1.58,3.41-3.24,4.69-1.65,1.28-3.36,1.92-5.13,1.92Z"/><path class="cls-1" d="m83.42,43.67c-1.77,0-3.14-.64-4.11-1.92-.66-.85-.99-1.83-.99-2.91,0-.56.09-1.16.26-1.78l7.58-28.33h4.46l1.57,2.16-8.77,32.79Z"/><path class="cls-1" d="m119.47,43.67h-4.75c-5.89,0-10.62-1.05-14.19-3.15-3.58-2.12-5.9-5.23-6.97-9.33-.45-1.67-.67-3.49-.67-5.45,0-2.89.48-6.11,1.43-9.65h6.44c-.78,2.89-1.17,5.5-1.17,7.81,0,8.76,5.63,13.14,16.9,13.14h4.75l-1.78,6.62Zm-2.86-28.33h-22.09c.49-1.77,1.53-3.31,3.15-4.63,1.63-1.32,3.37-1.98,5.22-1.98h22.09c-.47,1.77-1.52,3.31-3.15,4.63-1.63,1.32-3.37,1.98-5.22,1.98Z"/><path class="cls-1" d="m122.97,43.67l9.36-34.94h6.59l-4.2,15.71c.39-.19.86-.46,1.43-.79,5.28-2.72,11.76-4.16,19.44-4.31l1.05-3.99c.51-1.85,1.58-3.41,3.24-4.69,1.65-1.28,3.36-1.92,5.13-1.92l-9.33,34.8h-6.59l4.81-17.87c-6.51.14-11.77,1.26-15.8,3.38-3.58,1.85-5.83,4.52-6.76,8.01-.51,1.85-1.58,3.41-3.24,4.69-1.65,1.28-3.36,1.92-5.13,1.92Z"/><path class="cls-1" d="m165.78,43.67c-1.77,0-3.14-.64-4.11-1.92-.66-.85-.99-1.83-.99-2.91,0-.56.09-1.16.26-1.78l7.58-28.33h4.46l1.57,2.16-8.77,32.79Z"/><path class="cls-2" d="m38.03,44.87h-5.67c-6.02,0-10.98-1.07-14.8-3.31h0s0,0,0,0c-3.85-2.28-6.36-5.65-7.51-10.05-.48-1.78-.71-3.7-.71-5.75,0-2.81.43-5.89,1.27-9.21h-.01l.41-1.51.03-.12h0c.57-1.99,1.77-3.69,3.51-5.12h0s0,0,0,0c1.81-1.47,3.81-2.25,5.97-2.25h23.64l-.4,1.5c-.54,2.05-1.75,3.8-3.55,5.26-1.81,1.47-3.81,2.25-5.97,2.25h-14.74c-.73,2.77-1.09,5.23-1.09,7.37,0,4.11,1.3,7,3.76,8.92,2.52,1.96,6.43,3.03,11.94,3.03h6.31l-2.42,9Zm-19.63-28.76c-.04.15-.08.29-.11.44-.07.25-.13.51-.19.76-.58,2.42-.86,4.63-.86,6.62,0,8.76,5.63,13.14,16.9,13.14h4.75l-1.78,6.62h-4.75c-5.89,0-10.62-1.05-14.19-3.15-3.57-2.12-5.9-5.23-6.97-9.33-.45-1.67-.67-3.49-.67-5.45,0-2.78.44-5.85,1.31-9.21.04-.14.08-.29.12-.44h6.44Zm15.85-.76c1.85,0,3.58-.66,5.22-1.98,1.25-1.01,2.16-2.16,2.73-3.44.17-.39.31-.78.42-1.19h-22.09c-1.85,0-3.58.66-5.22,1.98-1.24,1.01-2.15,2.16-2.72,3.44-.11.25-.21.5-.3.76-.05.14-.09.29-.13.44h22.09Zm4.8,29.52L49.05,7.54h9.06l-3.89,14.57c5.08-2.41,11.12-3.7,18.08-3.94l.82-3.13h0c.58-2.12,1.82-3.9,3.65-5.33,1.82-1.41,3.78-2.17,5.86-2.17h1.56l-9.97,37.19h-9.06l4.79-17.81c-5.65.27-10.19,1.36-13.67,3.19h0s0,0,0,0c-3.31,1.71-5.32,4.13-6.16,7.26h0s0,0,0,0c-.58,2.12-1.82,3.89-3.65,5.32-1.82,1.41-3.78,2.17-5.86,2.17h-1.56Zm31.23-19.17c.41-.02.83-.03,1.25-.04l-4.81,17.87h6.59l9.33-34.8c-.43,0-.85.04-1.27.11-1.32.23-2.61.84-3.86,1.81-1.65,1.28-2.73,2.85-3.24,4.69l-1.05,3.99c-7.66.16-14.14,1.59-19.42,4.3,0,0-.01,0-.02.01-.56.33-1.04.59-1.43.79l4.2-15.71h-6.59l-9.36,34.94c.43,0,.85-.04,1.27-.11,1.32-.23,2.61-.84,3.86-1.81,1.65-1.28,2.73-2.85,3.24-4.69.93-3.5,3.19-6.17,6.76-8.01,3.76-1.98,8.61-3.09,14.55-3.34Zm14.05,19.17h-.92c-2.1,0-3.84-.78-5.06-2.39-.82-1.06-1.24-2.29-1.24-3.64,0-.68.11-1.38.3-2.09l7.81-29.21h5.98l2.27,3.11-9.16,34.22Zm-5.75-7.81c-.17.62-.26,1.21-.26,1.78,0,1.09.33,2.06.99,2.91.97,1.28,2.34,1.92,4.11,1.92l8.77-32.79-1.57-2.16h-4.46l-7.58,28.33Zm41.8,7.81h-5.67c-6.02,0-10.98-1.07-14.8-3.31h0s0,0,0,0c-3.85-2.28-6.36-5.65-7.51-10.05-.48-1.78-.71-3.7-.71-5.75,0-2.81.43-5.89,1.27-9.21h-.01l.41-1.51.03-.12h0c.57-1.99,1.77-3.69,3.51-5.12h0s0,0,0,0c1.81-1.47,3.81-2.25,5.97-2.25h23.64l-.4,1.5c-.54,2.05-1.75,3.8-3.55,5.26-1.81,1.47-3.81,2.25-5.97,2.25h-14.74c-.73,2.77-1.09,5.23-1.09,7.37,0,4.11,1.3,7,3.76,8.92,2.52,1.96,6.43,3.03,11.94,3.03h6.31l-2.42,9Zm-19.63-28.76c-.04.15-.08.29-.11.44-.07.25-.13.51-.19.76-.58,2.42-.86,4.63-.86,6.62,0,8.76,5.63,13.14,16.9,13.14h4.75l-1.78,6.62h-4.75c-5.89,0-10.62-1.05-14.19-3.15-3.58-2.12-5.9-5.23-6.97-9.33-.45-1.67-.67-3.49-.67-5.45,0-2.78.44-5.85,1.31-9.21.04-.14.08-.29.12-.44h6.44Zm15.85-.76c1.85,0,3.58-.66,5.22-1.98,1.25-1.01,2.16-2.16,2.73-3.44.17-.39.31-.78.42-1.19h-22.09c-1.85,0-3.58.66-5.22,1.98-1.24,1.01-2.15,2.16-2.72,3.44-.11.25-.21.5-.3.76-.05.14-.09.29-.13.44h22.09Zm4.8,29.52l9.99-37.33h9.06l-3.89,14.57c5.08-2.41,11.12-3.7,18.08-3.94l.82-3.13h0c.58-2.12,1.82-3.9,3.65-5.33,1.82-1.41,3.78-2.17,5.86-2.17h1.56l-9.97,37.19h-9.06l4.79-17.81c-5.65.27-10.19,1.36-13.67,3.19h0s0,0,0,0c-3.31,1.71-5.32,4.13-6.16,7.26h0s0,0,0,0c-.58,2.12-1.82,3.89-3.65,5.32-1.82,1.41-3.78,2.17-5.86,2.17h-1.56Zm31.23-19.17c.41-.02.83-.03,1.25-.04l-4.81,17.87h6.59l9.33-34.8c-.43,0-.85.04-1.27.11-1.32.23-2.61.84-3.86,1.81-1.65,1.28-2.73,2.85-3.24,4.69l-1.05,3.99c-7.66.16-14.14,1.59-19.42,4.3,0,0-.01,0-.02.01-.56.33-1.04.59-1.43.79l4.2-15.71h-6.59l-9.36,34.94c.43,0,.85-.04,1.27-.11,1.32-.23,2.61-.84,3.86-1.81,1.65-1.28,2.73-2.85,3.24-4.69.93-3.5,3.19-6.17,6.76-8.01,3.76-1.98,8.61-3.09,14.55-3.34Zm14.05,19.17h-.92c-2.1,0-3.84-.78-5.06-2.39-.82-1.06-1.24-2.29-1.24-3.64,0-.69.11-1.38.3-2.09,0,0,0,0,0,0l7.81-29.2h5.98l2.27,3.11-9.16,34.22Zm-5.75-7.81c-.17.62-.26,1.21-.26,1.78,0,1.09.33,2.06.99,2.91.97,1.28,2.34,1.92,4.11,1.92l8.77-32.79-1.57-2.16h-4.46l-7.58,28.33Z"/></svg>